<?xml version="1.0" encoding="utf-8"?>
<!-- Generator: Adobe Illustrator 27.6.1, SVG Export Plug-In . SVG Version: 6.00 Build 0)  -->
<svg version="1.1" id="Layer_1" xmlns="http://www.w3.org/2000/svg" xmlns:xlink="http://www.w3.org/1999/xlink" x="0px" y="0px"
	 viewBox="0 0 1167.8 1139" style="enable-background:new 0 0 1167.8 1139;" xml:space="preserve">
<style type="text/css">
	.st0{fill-rule:evenodd;clip-rule:evenodd;fill:#4F8BB6;}
</style>
<path class="st0" d="M580.3,362.9c115.5,0,209.2,93.6,209.2,209s-93.6,209-209.2,209s-209.2-93.6-209.2-209
	C371.2,456.5,464.8,362.9,580.3,362.9 M1126.6,574.5c0,47.3-38.4,85.7-85.7,85.7c-47.3,0-85.7-38.3-85.7-85.7
	c0-47.3,38.4-85.7,85.7-85.7c0,0,0,0,0,0C1088.2,488.9,1126.5,527.2,1126.6,574.5C1126.6,574.5,1126.6,574.5,1126.6,574.5
	 M205.9,574.5c0,47.3-38.4,85.7-85.7,85.7c0,0,0,0,0,0c-47.3,0-85.7-38.3-85.7-85.7c0,0,0,0,0,0c0-47.3,38.4-85.7,85.7-85.7
	c0,0,0,0,0,0C167.5,488.9,205.9,527.2,205.9,574.5L205.9,574.5 M930.7,574.5c0,11.4-9.3,20.7-20.7,20.7s-20.7-9.3-20.7-20.7
	c0-11.4,9.3-20.7,20.7-20.7S930.7,563.1,930.7,574.5 M858.7,574.5c0,11.4-9.3,20.7-20.7,20.7s-20.7-9.3-20.7-20.7
	c0-11.4,9.3-20.7,20.7-20.7S858.7,563.1,858.7,574.5 M345.4,574.5c0,11.4-9.3,20.7-20.7,20.7c-11.4,0-20.7-9.3-20.7-20.7
	c0-11.4,9.3-20.7,20.7-20.7S345.4,563.1,345.4,574.5L345.4,574.5 M273.4,574.5c0,11.4-9.3,20.7-20.7,20.7s-20.7-9.3-20.7-20.7
	c0-11.4,9.3-20.7,20.7-20.7C264.2,553.8,273.4,563.1,273.4,574.5 M580.5,28.8c47.3,0,85.7,38.4,85.7,85.7
	c0,47.3-38.4,85.7-85.7,85.7l0,0c-47.3,0-85.7-38.3-85.7-85.7c0,0,0,0,0,0C494.8,67.1,533.2,28.8,580.5,28.8 M580.5,948.9
	c47.3,0,85.7,38.3,85.7,85.7c0,0,0,0,0,0c0,47.3-38.4,85.7-85.7,85.7c-47.3,0-85.7-38.3-85.7-85.7
	C494.8,987.3,533.2,948.9,580.5,948.9C580.5,948.9,580.5,948.9,580.5,948.9 M580.5,224.5c11.4-0.6,21.1,8.3,21.7,19.7
	c0.6,11.4-8.3,21.1-19.7,21.7c-0.7,0-1.3,0-2,0c-11.4-0.6-20.2-10.3-19.7-21.7C561.4,233.5,569.9,225,580.5,224.5 M580.5,296.5
	c11.4,0,20.7,9.2,20.7,20.7s-9.2,20.7-20.7,20.7c0,0,0,0,0,0c-11.4,0-20.7-9.3-20.7-20.7S569.1,296.5,580.5,296.5 M580.5,809.5
	c11.4,0,20.7,9.3,20.7,20.7c0,11.4-9.3,20.7-20.7,20.7l0,0c-11.4,0-20.7-9.3-20.7-20.7C559.8,818.7,569.1,809.5,580.5,809.5
	 M580.5,881.4c11.4,0,20.7,9.3,20.7,20.7c0,11.4-9.3,20.7-20.7,20.7l0,0c-11.4,0-20.7-9.3-20.7-20.7
	C559.8,890.7,569.1,881.4,580.5,881.4 M966.6,188.7c33.5,33.4,33.5,87.6,0.1,121.1c0,0,0,0-0.1,0.1c-33.5,33.5-87.7,33.5-121.2,0
	c-33.5-33.4-33.5-87.6-0.1-121.1c0,0,0,0,0.1-0.1C878.9,155.2,933.2,155.2,966.6,188.7 M315.7,839.3c33.5,33.4,33.5,87.6,0.1,121.1
	c0,0,0,0-0.1,0.1c-33.5,33.4-87.7,33.4-121.2,0c-33.5-33.4-33.5-87.6-0.1-121.1c0,0,0,0,0.1-0.1
	C227.9,805.8,282.2,805.8,315.7,839.3 M828.2,327c8.4,7.7,9,20.8,1.3,29.2c-7.7,8.4-20.8,9-29.2,1.3c-0.5-0.4-0.9-0.9-1.3-1.3
	c-7.7-8.4-7.1-21.5,1.4-29.2C808.2,319.8,820.3,319.8,828.2,327 M777.2,377.9c8.1,8.1,8.1,21.2,0,29.2c-8.1,8.1-21.2,8.1-29.2,0l0,0
	c-8.1-8.1-8.1-21.2,0-29.2C756.1,369.8,769.2,369.8,777.2,377.9 M414.3,740.6c8.1,8.1,8.1,21.2,0,29.2c-8.1,8.1-21.2,8.1-29.2,0
	c-8.1-8.1-8.1-21.2,0-29.2C393.1,732.6,406.2,732.6,414.3,740.6 M363.4,791.5c8.3,7.9,8.5,21,0.6,29.3c-7.9,8.3-21,8.5-29.3,0.6
	c-0.2-0.2-0.4-0.4-0.6-0.6c-7.9-8.3-7.6-21.3,0.6-29.3C342.8,783.9,355.4,783.9,363.4,791.5 M194.4,188.6
	c33.5-33.4,87.7-33.4,121.2,0c33.5,33.4,33.5,87.7,0,121.1c0,0,0,0,0,0c-33.5,33.4-87.7,33.4-121.2,0
	C161,276.3,160.9,222.1,194.4,188.6C194.4,188.6,194.4,188.6,194.4,188.6 M845.4,839.2c33.5-33.4,87.7-33.4,121.2,0
	c33.5,33.4,33.5,87.7,0,121.1c0,0,0,0,0,0c-33.5,33.4-87.7,33.4-121.2,0C812,927,811.9,872.7,845.4,839.2
	C845.4,839.3,845.4,839.2,845.4,839.2 M332.9,327c7.9-8.2,21-8.5,29.3-0.6c8.2,7.9,8.5,21,0.6,29.3c-0.2,0.2-0.4,0.4-0.6,0.6
	c-8.2,7.9-21.3,7.7-29.3-0.6C325.2,347.7,325.2,335,332.9,327 M383.8,377.9c7.9-8.2,21-8.5,29.3-0.6c8.2,7.9,8.5,21,0.6,29.3
	c-0.2,0.2-0.4,0.4-0.6,0.6c-8.2,7.9-21.3,7.7-29.3-0.6C376.1,398.6,376.1,385.9,383.8,377.9 M746.7,740.6c7.9-8.2,21-8.5,29.3-0.6
	c8.2,7.9,8.5,21,0.6,29.3c-0.2,0.2-0.4,0.4-0.6,0.6c-8.2,7.9-21.3,7.6-29.3-0.6C739.1,761.3,739.1,748.7,746.7,740.6 M797.7,791.5
	c7.9-8.2,21-8.5,29.3-0.5c8.2,7.9,8.5,21,0.5,29.3c-0.2,0.2-0.4,0.4-0.5,0.5c-8.2,7.9-21.3,7.7-29.3-0.5
	C789.9,812.2,789.9,799.5,797.7,791.5"/>
</svg>
