<?xml version="1.0" encoding="utf-8"?>
<!-- Generator: Adobe Illustrator 27.6.1, SVG Export Plug-In . SVG Version: 6.00 Build 0)  -->
<svg version="1.1" id="Layer_1" xmlns="http://www.w3.org/2000/svg" xmlns:xlink="http://www.w3.org/1999/xlink" x="0px" y="0px"
	 viewBox="0 0 3312.1 1139" style="enable-background:new 0 0 3312.1 1139;" xml:space="preserve">
<style type="text/css">
	.st0{fill-rule:evenodd;clip-rule:evenodd;fill:#4F8BB6;}
	.st1{fill:#4F8BB6;}
	.st2{fill:none;}
</style>
<path class="st0" d="M580.3,362.9c115.5,0,209.2,93.6,209.2,209s-93.6,209-209.2,209s-209.2-93.6-209.2-209
	C371.2,456.5,464.8,362.9,580.3,362.9 M1126.6,574.5c0,47.3-38.4,85.7-85.7,85.7c-47.3,0-85.7-38.3-85.7-85.7
	c0-47.3,38.4-85.7,85.7-85.7l0,0C1088.2,488.9,1126.5,527.2,1126.6,574.5L1126.6,574.5 M205.9,574.5c0,47.3-38.4,85.7-85.7,85.7l0,0
	c-47.3,0-85.7-38.3-85.7-85.7l0,0c0-47.3,38.4-85.7,85.7-85.7l0,0C167.5,488.9,205.9,527.2,205.9,574.5L205.9,574.5 M930.7,574.5
	c0,11.4-9.3,20.7-20.7,20.7s-20.7-9.3-20.7-20.7s9.3-20.7,20.7-20.7S930.7,563.1,930.7,574.5 M858.7,574.5
	c0,11.4-9.3,20.7-20.7,20.7s-20.7-9.3-20.7-20.7s9.3-20.7,20.7-20.7S858.7,563.1,858.7,574.5 M345.4,574.5
	c0,11.4-9.3,20.7-20.7,20.7c-11.4,0-20.7-9.3-20.7-20.7s9.3-20.7,20.7-20.7S345.4,563.1,345.4,574.5L345.4,574.5 M273.4,574.5
	c0,11.4-9.3,20.7-20.7,20.7s-20.7-9.3-20.7-20.7s9.3-20.7,20.7-20.7C264.2,553.8,273.4,563.1,273.4,574.5 M580.5,28.8
	c47.3,0,85.7,38.4,85.7,85.7s-38.4,85.7-85.7,85.7l0,0c-47.3,0-85.7-38.3-85.7-85.7l0,0C494.8,67.1,533.2,28.8,580.5,28.8
	 M580.5,948.9c47.3,0,85.7,38.3,85.7,85.7l0,0c0,47.3-38.4,85.7-85.7,85.7s-85.7-38.3-85.7-85.7
	C494.8,987.3,533.2,948.9,580.5,948.9L580.5,948.9 M580.5,224.5c11.4-0.6,21.1,8.3,21.7,19.7c0.6,11.4-8.3,21.1-19.7,21.7
	c-0.7,0-1.3,0-2,0c-11.4-0.6-20.2-10.3-19.7-21.7C561.4,233.5,569.9,225,580.5,224.5 M580.5,296.5c11.4,0,20.7,9.2,20.7,20.7
	s-9.2,20.7-20.7,20.7l0,0c-11.4,0-20.7-9.3-20.7-20.7S569.1,296.5,580.5,296.5 M580.5,809.5c11.4,0,20.7,9.3,20.7,20.7
	s-9.3,20.7-20.7,20.7l0,0c-11.4,0-20.7-9.3-20.7-20.7C559.8,818.7,569.1,809.5,580.5,809.5 M580.5,881.4c11.4,0,20.7,9.3,20.7,20.7
	s-9.3,20.7-20.7,20.7l0,0c-11.4,0-20.7-9.3-20.7-20.7S569.1,881.4,580.5,881.4 M966.6,188.7c33.5,33.4,33.5,87.6,0.1,121.1
	c0,0,0,0-0.1,0.1c-33.5,33.5-87.7,33.5-121.2,0c-33.5-33.4-33.5-87.6-0.1-121.1c0,0,0,0,0.1-0.1
	C878.9,155.2,933.2,155.2,966.6,188.7 M315.7,839.3c33.5,33.4,33.5,87.6,0.1,121.1c0,0,0,0-0.1,0.1c-33.5,33.4-87.7,33.4-121.2,0
	s-33.5-87.6-0.1-121.1c0,0,0,0,0.1-0.1C227.9,805.8,282.2,805.8,315.7,839.3 M828.2,327c8.4,7.7,9,20.8,1.3,29.2
	c-7.7,8.4-20.8,9-29.2,1.3c-0.5-0.4-0.9-0.9-1.3-1.3c-7.7-8.4-7.1-21.5,1.4-29.2C808.2,319.8,820.3,319.8,828.2,327 M777.2,377.9
	c8.1,8.1,8.1,21.2,0,29.2c-8.1,8.1-21.2,8.1-29.2,0l0,0c-8.1-8.1-8.1-21.2,0-29.2C756.1,369.8,769.2,369.8,777.2,377.9 M414.3,740.6
	c8.1,8.1,8.1,21.2,0,29.2c-8.1,8.1-21.2,8.1-29.2,0c-8.1-8.1-8.1-21.2,0-29.2C393.1,732.6,406.2,732.6,414.3,740.6 M363.4,791.5
	c8.3,7.9,8.5,21,0.6,29.3s-21,8.5-29.3,0.6c-0.2-0.2-0.4-0.4-0.6-0.6c-7.9-8.3-7.6-21.3,0.6-29.3
	C342.8,783.9,355.4,783.9,363.4,791.5 M194.4,188.6c33.5-33.4,87.7-33.4,121.2,0s33.5,87.7,0,121.1l0,0
	c-33.5,33.4-87.7,33.4-121.2,0C161,276.3,160.9,222.1,194.4,188.6L194.4,188.6 M845.4,839.2c33.5-33.4,87.7-33.4,121.2,0
	s33.5,87.7,0,121.1l0,0c-33.5,33.4-87.7,33.4-121.2,0C812,927,811.9,872.7,845.4,839.2C845.4,839.3,845.4,839.2,845.4,839.2
	 M332.9,327c7.9-8.2,21-8.5,29.3-0.6c8.2,7.9,8.5,21,0.6,29.3c-0.2,0.2-0.4,0.4-0.6,0.6c-8.2,7.9-21.3,7.7-29.3-0.6
	C325.2,347.7,325.2,335,332.9,327 M383.8,377.9c7.9-8.2,21-8.5,29.3-0.6c8.2,7.9,8.5,21,0.6,29.3c-0.2,0.2-0.4,0.4-0.6,0.6
	c-8.2,7.9-21.3,7.7-29.3-0.6C376.1,398.6,376.1,385.9,383.8,377.9 M746.7,740.6c7.9-8.2,21-8.5,29.3-0.6c8.2,7.9,8.5,21,0.6,29.3
	c-0.2,0.2-0.4,0.4-0.6,0.6c-8.2,7.9-21.3,7.6-29.3-0.6C739.1,761.3,739.1,748.7,746.7,740.6 M797.7,791.5c7.9-8.2,21-8.5,29.3-0.5
	c8.2,7.9,8.5,21,0.5,29.3c-0.2,0.2-0.4,0.4-0.5,0.5c-8.2,7.9-21.3,7.7-29.3-0.5C789.9,812.2,789.9,799.5,797.7,791.5"/>
<path class="st1" d="M1346.1,715.7c-18.5,0-35-3.4-49.8-10.1c-14.8-6.7-27.3-16.5-37.8-29.1c-10.4-12.5-18.4-27.6-24-45
	c-5.5-17.3-8.3-36.6-8.3-57.7c0-27.3,4.7-51.9,13.8-73.4c9.2-21.5,22.5-38.5,39.8-50.7s37.9-18.5,62-18.5c7.3,0,14.5,0.6,21.7,1.8
	c7.2,1.1,14,2.7,20.6,4.7c6.5,1.9,12.6,4.2,18.4,6.6c5.7,2.6,10.8,5.1,15.2,8l-4,58.8c-8.3-6.3-16.2-11.2-23.8-15.1
	c-7.6-3.9-14.9-6.6-22-8.4c-7.1-1.8-13.7-2.6-20.1-2.6c-12.9,0-24.5,3.4-34.5,10.3c-10.1,6.9-18,16.9-23.7,30.2
	c-5.9,13.2-8.7,29.4-8.7,48.5c0,12.2,1.5,23.6,4.4,34.5c2.9,10.8,7.5,20.4,13.4,28.6c6,8.4,13.4,14.8,22.5,19.6
	c9.1,4.8,19.6,7.1,31.7,7.1c4.9,0,10-0.5,15-1.3c5.1-0.8,10.1-2.2,15.2-4c5.1-1.8,10.1-4.2,15.3-7.4c5.1-3.1,10.1-6.9,15.3-11.4
	l2.9,58c-4.5,3.1-9.6,5.8-15.2,8c-5.5,2.2-11.3,4.2-17.4,5.6c-6.1,1.4-12.4,2.6-18.8,3.2C1358.9,715.2,1352.3,715.7,1346.1,715.7"/>
<rect x="1228.1" y="433.3" class="st2" width="191.4" height="284.4"/>
<path class="st1" d="M1562.3,715.7c-20.5,0-38.2-3.9-53.1-11.4s-27.3-18-36.9-31.3c-9.6-13.2-16.8-28.4-21.6-45.3
	c-4.8-17-7.1-35-7.1-53.8c0-26.7,4.4-50.7,13.2-72.3c8.8-21.5,21.8-38.7,39.1-51.4c17.3-12.7,39-19,65-19c19.7,0,37,3.7,51.7,11.1
	c14.8,7.4,27,17.5,36.9,30.7c9.9,13,17.2,28.1,22,45.3c4.9,17.2,7.3,35.5,7.3,55.2c0,27.3-4.5,51.6-13.4,72.9
	c-8.9,21.4-22.1,38.2-39.4,50.6C1608.7,709.4,1587.4,715.7,1562.3,715.7 M1561.6,663.6c10.5,0,19.7-2.4,27.6-7.2
	c7.9-4.8,14.4-11.4,19.6-19.9s9.1-18,11.7-28.9c2.5-10.8,3.9-22.2,3.9-34.2c0-12.7-1.5-24.4-4.3-35.3c-2.8-10.9-6.9-20.6-12.2-28.7
	c-5.3-8.2-11.8-14.6-19.7-19.1c-7.7-4.7-16.6-6.9-26.5-6.9c-10.3,0-19.4,2.4-27.3,7.1c-7.9,4.8-14.5,11.2-19.8,19.8
	c-5.3,8.4-9.3,18-12.1,28.9c-2.8,10.9-4.1,22.3-4.1,34.5c0,12.2,1.3,23.6,4,34.5c2.7,10.8,6.7,20.4,11.8,28.7
	c5.2,8.4,11.8,14.9,19.7,19.8C1541.8,661.2,1551,663.6,1561.6,663.6"/>
<rect x="1445.4" y="433.3" class="st2" width="235.1" height="284.4"/>
<path class="st1" d="M1701.2,710.4c1.6-14.3,3.1-28.6,4.7-43c1.6-14.5,3.1-29.9,4.8-46.6l9.5-91.7c1.7-16.5,3.5-32.1,4.9-46.9
	c1.5-14.8,3.1-29.9,4.7-45.4h53c5.1,15.6,10,30.5,14.5,44.8c4.7,14.3,9.2,28.4,13.7,42.4l27,83.7h3.5l26.2-83.5
	c4.4-14.1,8.9-28.3,13.3-42.2s9.1-29.1,13.8-45.3h52.3c1.6,15.4,3.2,30.4,4.7,45.1c1.6,14.8,3.2,30.5,4.9,47.4l9.7,92
	c1.7,16.7,3.3,32,4.8,46.1c1.6,14.1,3.1,28.4,4.5,43H1926c-1.9-19.1-3.7-37.4-5.6-54.8c-1.7-17.2-3.5-33.4-4.9-48.5l-6.7-64.9h-3.5
	l-19.7,69.7c-4.8,17.2-9.6,34-14.4,50.9c-4.8,16.9-9.3,32.6-13.4,47.5h-34.6c-2.9-9.6-6.1-19.9-9.6-30.8
	c-3.5-10.9-6.9-22.2-10.5-33.6s-7.2-22.6-10.6-33.7l-22-69.9h-3.5l-6.5,64.4c-1.5,15.3-3.1,31.5-4.8,48.8
	c-1.7,17.3-3.6,35.7-5.5,54.8h-49V710.4z"/>
<rect x="1703" y="439" class="st2" width="274.6" height="273.7"/>
<path class="st1" d="M2013.9,710.4V436.9h90.9c18.4,0,33.7,2.7,46.1,8.2c12.4,5.5,21.6,14.6,27.8,27.1c6.3,12.5,9.3,29.6,9.3,50.7
	c0,18-2.7,33.9-8,47.7c-5.3,13.7-13.8,24.4-25.8,32.3c-11.8,7.7-27.6,11.6-47.1,11.6h-48.3v-48h36.6c9.1,0,16.6-1.4,22.5-4.5
	c5.9-2.9,10.1-7.5,12.9-13.7c2.8-6.3,4.3-14.3,4.3-24.1c0-7.9-0.9-14.1-2.9-19.1c-2-5-4.7-8.8-7.9-11.6c-3.3-2.7-6.9-4.7-10.9-5.6
	c-4-1.1-8-1.6-12-1.6h-60.7l24.9-39.5v263.7L2013.9,710.4z"/>
<rect x="2015.8" y="439" class="st2" width="174.1" height="273.7"/>
<path class="st1" d="M2220.4,710.4V436.9h150.7v51.6h-124.3l24.9-41.6v253.6l-21.6-41.6h122.5v51.7L2220.4,710.4z M2259.7,596.5v-48
	h106.2v48h-64.7H2259.7z"/>
<rect x="2222.1" y="439" class="st2" width="152" height="273.7"/>
<path class="st1" d="M2410.4,710.4V436.9h45.7c10.6,18.6,20.6,36.3,30.1,52.8c9.5,16.5,18.9,33.1,28.4,49.8l36.9,64.4h3.9v-167h49.1
	v273.7h-45.1c-8.7-15.4-17.8-31.3-27.3-48c-9.6-16.7-20-34.9-31.3-54.4l-37.4-65.2h-3.7v167.7L2410.4,710.4z"/>
<rect x="2412.1" y="439" class="st2" width="193.8" height="273.7"/>
<path class="st1" d="M2648.9,710.4V436.9h90.3c17.3,0,32.6,3.1,46.1,9c13.4,6.1,24.8,14.8,34.1,26.5s16.4,25.9,21.3,42.7
	c4.9,16.9,7.3,36,7.3,57.7c0,19.3-2.1,37.3-6.4,54c-4.3,16.7-11.2,31.3-20.5,43.8s-21.7,22.3-37.1,29.4
	c-15.3,7.1-34.1,10.6-56.3,10.6h-54.3L2648.9,710.4z M2701.2,659.9h26.1c16.4,0,29.3-3.9,38.9-11.6c9.6-7.7,16.5-18.1,20.8-31.5
	c4.3-13.3,6.4-28.3,6.4-45.1c0-12.7-1.2-24.3-3.7-34.5c-2.5-10.4-6.3-19.3-11.4-26.8c-5.2-7.5-11.7-13.2-19.7-17.3
	c-8-4-17.4-6.1-28.5-6.1h-28.8v147.6L2701.2,659.9L2701.2,659.9z"/>
<rect x="2650.7" y="439" class="st2" width="199" height="273.7"/>
<path class="st1" d="M2883.2,710.4V436.9h53.4v273.7L2883.2,710.4z"/>
<rect x="2884.9" y="439" class="st2" width="53.4" height="273.7"/>
<path class="st1" d="M2966.5,710.4c4-14.8,8.3-30.2,12.6-46.4l12.5-46.3l25.6-93.8c4.5-17,8.7-32.3,12.4-45.9
	c3.7-13.7,7.5-27.3,11.2-41.1h67.5c3.9,14.3,7.6,28.3,11.2,41.8c3.6,13.5,7.7,28.6,12.2,45.3l25.3,94c4.1,15.1,8.4,30.7,12.6,46.6
	l12.2,45.9h-54c-3.3-14.6-6.9-29.6-10.5-44.8c-3.6-15.3-7.1-29.7-10.4-43.5l-31.2-131.9h-3.9l-31.5,130.4
	c-3.3,14.1-6.9,29.1-10.8,44.6c-3.7,15.6-7.5,30.5-10.9,45L2966.5,710.4z M3021.3,653.2l5.6-47.2h101.3l4.4,47.2H3021.3z"/>
<rect x="2968.3" y="439" class="st2" width="215.5" height="273.7"/>
</svg>
